<svg xmlns="http://www.w3.org/2000/svg" width="123" height="25" fill="none" xmlns:v="https://vecta.io/nano"><g clip-path="url(#A)" fill-rule="evenodd" fill="#99baff"><path d="M119.9 18.957c.075.869.753 1.974 1.928 1.974h.688c.266 0 .485-.224.485-.497V4.947h-.003a.49.49 0 0 0-.482-.47h-2.131a.49.49 0 0 0-.482.47h-.003v1.258c-1.305-1.648-3.363-2.332-5.426-2.332-4.691 0-8.494 3.898-8.494 8.706s3.803 8.706 8.494 8.706h0c2.063 0 4.312-.821 5.426-2.332v.002zm-5.418-.718c-2.983 0-5.402-2.533-5.402-5.659s2.419-5.659 5.402-5.659 5.401 2.534 5.401 5.659-2.418 5.659-5.401 5.659zm-11.195 1.25l-.001-8.014h0c0-4.517-2.78-7.565-7.214-7.565-2.116 0-3.851 1.254-4.464 2.332-.133-.843-.569-1.728-1.922-1.728h-.69c-.267 0-.485.224-.485.497v13.984V20.5h.003a.49.49 0 0 0 .482.47h2.13c.033 0 .064-.004.095-.01.014-.003.027-.008.041-.012s.032-.009.047-.015.036-.019.054-.029c.009-.005.018-.009.026-.015a.49.49 0 0 0 .06-.048c.031-.029.05-.052.067-.076a.5.5 0 0 0 .091-.263h.003v-9.148c0-2.426 1.919-4.393 4.286-4.393s4.286 1.967 4.286 4.393l.002 7.647v-.003c0 .007.001.014.001.021V20.5h.003a.49.49 0 0 0 .482.47h2.13c.033 0 .065-.004.096-.01.012-.002.024-.008.036-.011.018-.005.036-.01.053-.017s.033-.018.049-.027c.01-.006.021-.01.031-.017.019-.013.037-.029.055-.045a.47.47 0 0 0 .068-.076c.057-.079.089-.169.094-.266l.003-.001v-1.01h0zM81.1 18.957c.075.869.753 1.974 1.928 1.974h.688c.267 0 .485-.224.485-.497V4.947h-.003a.49.49 0 0 0-.482-.47h-2.13a.49.49 0 0 0-.483.47H81.1v1.258c-1.305-1.648-3.363-2.332-5.427-2.332-4.691 0-8.493 3.898-8.493 8.706s3.802 8.706 8.493 8.706h0c2.064 0 4.313-.821 5.427-2.332v.002zm-5.419-.718c-2.983 0-5.401-2.533-5.401-5.659s2.419-5.659 5.401-5.659 5.402 2.534 5.402 5.659-2.418 5.659-5.402 5.659zm-21.098-1.501c1.422 1.01 2.974 1.5 4.466 1.5 1.421 0 2.89-.755 2.89-2.07 0-1.755-3.201-2.028-5.213-2.729s-3.744-2.149-3.744-4.495c0-3.59 3.12-5.072 6.032-5.072 1.845 0 3.749.624 4.983 1.517.425.33.166.709.166.709l-1.178 1.725c-.133.194-.364.362-.696.152S60.791 6.92 59.015 6.92s-2.847.841-2.847 1.884c0 1.25 1.391 1.643 3.02 2.069 2.839.784 5.937 1.727 5.937 5.296 0 3.163-2.886 5.117-6.076 5.117-2.417 0-4.475-.706-6.201-2.005-.359-.369-.108-.711-.108-.711l1.172-1.716c.238-.321.539-.209.671-.116zm-8.191 2.219c.075.869.753 1.974 1.928 1.974h.688c.266 0 .485-.224.485-.497V4.947h-.003a.49.49 0 0 0-.482-.47h-2.13a.49.49 0 0 0-.482.47h-.003v1.258c-1.305-1.648-3.363-2.332-5.427-2.332-4.691 0-8.493 3.898-8.493 8.706s3.802 8.706 8.493 8.706h0c2.064 0 4.313-.821 5.426-2.332v.002zm-5.418-.718c-2.983 0-5.402-2.533-5.402-5.659s2.419-5.659 5.402-5.659 5.401 2.534 5.401 5.659-2.418 5.659-5.401 5.659zm-20.409-5.067c-3.157 0-5.716 2.621-5.716 5.854s2.559 5.854 5.716 5.854 5.716-2.621 5.716-5.854-2.559-5.854-5.716-5.854zm-14.85.001C2.559 13.172 0 15.793 0 19.026s2.559 5.854 5.716 5.854 5.716-2.621 5.716-5.854-2.559-5.854-5.716-5.854zm13.14-7.318c0 3.233-2.559 5.855-5.715 5.855S7.425 9.087 7.425 5.854 9.984 0 13.141 0s5.715 2.621 5.715 5.854z"/></g><defs><clipPath id="A"><path fill="#fff" d="M0 0h123v24.944H0z"/></clipPath></defs></svg>