<svg xmlns="http://www.w3.org/2000/svg" width="152" height="18" fill="none" xmlns:v="https://vecta.io/nano"><g clip-path="url(#A)"><path d="M43.829 4.978v7.716h1.924a3.67 3.67 0 0 0 2.617-1.152c.692-.732 1.07-1.706 1.055-2.713a3.8 3.8 0 0 0-1.04-2.725 3.61 3.61 0 0 0-2.631-1.128H43.83l-.001.001zm1.924-2.419c3.586 0 6.299 2.779 6.299 6.271s-2.713 6.287-6.299 6.287H41.51a.31.31 0 0 1-.118-.025c-.037-.016-.071-.039-.099-.068s-.05-.063-.066-.101a.31.31 0 0 1-.022-.118V2.884c0-.173.136-.313.304-.313l4.243-.012h0zm15.542 10.405c1.629.005 3.099-.997 3.726-2.538.307-.753.389-1.579.236-2.378s-.534-1.536-1.098-2.123a3.95 3.95 0 0 0-4.386-.905c-1.505.636-2.488 2.14-2.491 3.81 0 2.276 1.794 4.123 4.013 4.133h-.001zm.001-10.689c3.774 0 6.66 2.975 6.66 6.556s-2.885 6.556-6.661 6.556-6.635-2.96-6.635-6.556 2.886-6.556 6.635-6.556h.001zm15.828 10.689c2.22-.006 4.017-1.854 4.015-4.131s-1.803-4.123-4.022-4.124-4.023 1.844-4.025 4.121c0 1.097.425 2.149 1.181 2.924a3.98 3.98 0 0 0 2.851 1.21h.001zm-.001-10.689c3.763 0 6.648 2.96 6.648 6.556s-2.897 6.556-6.648 6.556-6.66-2.96-6.66-6.556 2.886-6.556 6.66-6.556zm15.449 2.704h-2.713v3.321h2.713a1.57 1.57 0 0 0 1.166-.444c.314-.304.493-.726.496-1.169a1.67 1.67 0 0 0-.471-1.222c-.154-.159-.339-.284-.545-.367s-.425-.122-.647-.115v-.003zm-5.337-2.095a.31.31 0 0 1 .305-.313h5.108c2.435 0 4.197 1.83 4.197 4.128.019 1.554-.83 2.982-2.185 3.677l2.356 4.271a.32.32 0 0 1 .053.165c.002.059-.012.117-.041.168a.3.3 0 0 1-.122.119c-.051.027-.109.039-.167.034h-2.067c-.057.001-.114-.015-.163-.044s-.089-.073-.114-.124l-2.27-4.227h-2.275v4.058c.001.04-.007.081-.022.119s-.037.072-.066.101-.062.052-.099.068-.077.025-.118.025h-1.992c-.04-.001-.081-.009-.118-.025s-.071-.039-.099-.068-.05-.063-.066-.101-.022-.078-.022-.119l-.014-11.911-.001-.001zm16.45 2.154v7.717h1.923a3.67 3.67 0 0 0 1.425-.309c.45-.197.856-.482 1.193-.839.692-.731 1.071-1.704 1.057-2.711a3.81 3.81 0 0 0-.246-1.468c-.178-.468-.447-.897-.791-1.261-.339-.358-.748-.643-1.202-.837s-.941-.293-1.435-.291l-1.924-.001h0zm1.923-2.422a6.2 6.2 0 0 1 6.299 6.281 6.2 6.2 0 0 1-6.299 6.281h-4.23c-.041-.001-.081-.009-.118-.025s-.071-.039-.099-.068-.051-.063-.066-.101a.3.3 0 0 1-.021-.119V2.943c0-.174.136-.314.304-.314l4.231-.015h-.001zm14.301 3.069L118.42 9.81h2.974l-1.486-4.127h0zm-2.361 6.459l-.975 2.747c-.019.065-.06.121-.115.16s-.121.059-.189.056h-2.113c-.054.005-.108-.005-.157-.028a.3.3 0 0 1-.121-.104.32.32 0 0 1-.054-.153c-.005-.055.005-.109.028-.159l4.566-11.91a.3.3 0 0 1 .117-.154c.055-.037.121-.055.187-.052h2.364c.067-.004.133.014.188.052a.31.31 0 0 1 .118.154l4.566 11.91c.022.05.032.105.027.16s-.024.107-.055.152-.072.08-.121.103a.3.3 0 0 1-.156.027h-2.113c-.067.003-.134-.017-.189-.056s-.095-.095-.115-.16l-.974-2.747h-4.714v.001zm10.859-6.191c0-1.972 1.662-3.677 4.287-3.677 1.413-.032 2.782.497 3.807 1.471a.32.32 0 0 1 .073.105c.017.039.026.082.026.125s-.009.086-.026.125a.32.32 0 0 1-.073.105l-1.171 1.192a.3.3 0 0 1-.216.092.3.3 0 0 1-.215-.092 3.04 3.04 0 0 0-2.031-.821c-1.05 0-1.826.625-1.826 1.346 0 2.331 6.203.986 6.203 5.472-.003 2.273-1.677 3.993-4.638 3.993-.823.008-1.638-.149-2.398-.462s-1.45-.776-2.028-1.361a.32.32 0 0 1-.073-.105c-.017-.039-.026-.082-.026-.125s.009-.085.026-.125a.32.32 0 0 1 .073-.105l1.132-1.162c.028-.03.062-.055.1-.071s.079-.025.121-.025a.3.3 0 0 1 .12.025c.038.016.072.041.101.071a3.86 3.86 0 0 0 2.675 1.119c1.312 0 2.176-.718 2.176-1.618 0-2.332-6.2-.986-6.2-5.473l.001-.019zm20.088-3.084v4.713h-5.251V2.868c0-.04-.007-.081-.022-.118s-.037-.072-.066-.101-.062-.052-.099-.068-.077-.024-.117-.025h-1.992c-.04.001-.08.009-.118.025s-.07.039-.099.068a.31.31 0 0 0-.065.101.3.3 0 0 0-.022.118v11.908a.31.31 0 0 0 .304.313h1.992a.31.31 0 0 0 .304-.313V9.988h5.247v4.788a.31.31 0 0 0 .304.313h1.992a.31.31 0 0 0 .304-.313V2.868c0-.04-.007-.081-.022-.118s-.037-.072-.066-.101-.062-.052-.099-.068-.077-.024-.117-.025h-1.992c-.081.002-.158.036-.214.094a.31.31 0 0 0-.086.218h0zM30.026 4.145C28.644 1.585 25.941-.01 23.002 0H.762C.612.001.465.045.34.129S.118.331.059.469a.75.75 0 0 0-.043.435.75.75 0 0 0 .208.385l4.845 4.807c.428.426 1.011.664 1.617.664h15.678c1.117-.012 2.031.873 2.043 1.975s-.884 2.004-2.001 2.015H11.596c-.15 0-.297.044-.423.127s-.223.201-.282.34a.75.75 0 0 0 .164.822l4.848 4.811c.431.426 1.012.664 1.617.663h4.889c6.361 0 11.17-6.711 7.616-13.373" fill="#99baff"/></g><defs><clipPath id="A"><path fill="#fff" d="M0 0h151.091v17.66H0z"/></clipPath></defs></svg>