<svg xmlns="http://www.w3.org/2000/svg" width="130" height="45" fill="none" xmlns:v="https://vecta.io/nano"><g clip-path="url(#A)" fill="#99baff"><path d="M22.652 3.801a5.34 5.34 0 0 0-1.119 3.251v10.206a3.83 3.83 0 0 1-.826 2.105l-1.972 1.839.879.027 3.624-3.331a5.22 5.22 0 0 0 1.386-3.518V4.574a3.76 3.76 0 0 1 1.039-2.691c.373-.4 1.546-1.386 1.759-1.626L26.489.23c-.187.24-3.518 3.251-3.837 3.571zm-7.488 37.122l3.704 3.224h2.478c2.372 0 4.664-.933 6.342-2.612 1.519-1.519 2.079-3.571 2.079-5.49v-5.303c-.027-1.199-.533-2.345-1.439-3.144l-1.252-1.199v4.077l1.412 1.466c1.093 1.173 1.093 3.304-2.398 6.689-.613.586-2.345 2.239-4.743 2.239l-6.182.053zm10.313-21.772c-.4.426-.8 1.492-.8 2.452v1.999h2.025c.799 0 1.839-.719 2.052-1.093V20.51c.293.426.666.826 1.093 1.146.213-.266 2.079-2.505 3.624-2.532 2.585-.027 1.999 3.251.959 4.29L32.085 25.6c-1.226 1.172-3.331.613-3.331-2.398l-2.585 2.425c-.346.293-1.492 1.519-1.492 1.519v5.303c0 2.532-.826 3.384-1.519 4.157-.267.293-3.118 2.905-3.518 3.198l-.933.027 1.999-1.865c.373-.4.826-1.199.826-2.532l-.053-8.314H8.475c-4.53 0-5.49-5.01-5.516-6.369v-5.036c0-.826-.533-2.212-1.359-2.638h1.279c.16.053.959.373.959 3.464l-.053 3.784c0 1.572 1.252 3.358 3.038 3.358l14.71-.027c0-.4.4-1.892 1.119-2.691.4-.453 3.571-3.331 3.917-3.624h.933l-1.999 1.865-.027-.053zm4.823 3.011c.373.506.799 1.013 1.252 1.466 1.599 1.279 2.345-.107 1.279-1.546-.426-.586-2.052-.426-2.532.08zM14.523 31.65c0 .72-2.265 2.612-2.398 2.718-.16-.773-.746-1.599-2.425-3.304l2.478-2.478c1.679 1.679 2.345 2.052 2.345 3.064h0zm4.318-28.488c.506.506 1.572 1.839.933 2.505l-1.439 1.466c-.053-.32-.879-1.119-.879-1.119v2.691c-.027 1.093-.426 1.386-.426 1.386s1.999 1.972 1.999 4.53v2.611c.027.48-.16.986-.506 1.333-.187.213-2.025 2.078-2.318 2.318-.426.373-.959.586-1.519.56H7.782c-1.093 0-2.212-.853-2.212-1.706l.027-2.558c.346.4.72.879 1.572.879.693 0 1.386-.533 1.572-.746l5.223-5.436s-2.345-2.185-3.891-3.224c-.746-.506-1.759.133-1.919.799-.48 2.079 0 5.223 0 5.223l-1.892-1.892c-.773-.773-.746-2.505.187-3.411.133-.16 1.546-1.705 3.304-1.705h2.745c1.839 0 3.864 1.839 3.864 1.839.16-.187.267-.4.293-.64l-.027-3.491c-1.386-1.386-1.572-2.825-.906-3.491L17.429.204s-.053 1.519 1.412 2.958h0zM10.18 17.019c-.693.72-.799.879-1.439 1.279h7.781c2.105 0 1.679-1.306 1.306-1.972-.773-1.359-3.225-3.864-3.225-3.864l-4.424 4.557h0zm-8.874 7.088H.027s1.359.746 1.359 2.692v6.209c0 4.024 3.331 7.755 7.382 7.755h3.384c2.025 0 2.745-.48 3.971-1.572.453-.4 1.039-1.066 1.252-1.306.693-.8 1.466-1.439 1.466-3.518v-2.025c0-1.759-1.013-2.478-1.519-2.985l-1.173-1.146v4.157s.853.906 1.226 1.199c1.759 1.386.373 3.784-1.279 3.784H8.661c-2.718.053-6.422-2.372-6.422-6.476v-3.358c.027-3.411-.933-3.411-.933-3.411h0z"/><path d="M9.46 31.676c0 .72-2.265 2.611-2.398 2.718-.16-.773-.746-1.599-2.425-3.304l2.478-2.478c1.652 1.652 2.345 2.025 2.345 3.065h0zm42.114-1.942h-3.997c-1.252 0-1.146-1.039-1.279-1.919v-5.703l1.865-.027c1.093 0 2.478-.16 3.811.586-.693-1.466-2.185-2.372-3.811-2.318h-1.839v-1.839s0-1.599-.4-2.052h2.638c2.265 0 4.024-.027 5.863 1.172 0 0-.346-3.011-4.743-3.011h-8.581s1.492 1.279 1.439 3.864l.053 10.393c0 2.612 1.039 2.691 1.039 2.691h8.447c1.919 0 2.585-1.359 2.585-2.105l.027-.986s-.613 1.252-3.118 1.252h0zm22.49-.88v-7.275c0-2.825-2.292-3.571-4.024-3.571-2.265 0-2.958 1.892-3.251 2.558-.506-1.759-2.292-2.558-3.731-2.558-2.745 0-3.438 2.612-3.438 2.612s-.053-2.532-2.265-2.532h-2.159s1.252.506 1.252 2.691v8.075c0 2.665 1.066 2.718 1.066 2.718h3.571a3.42 3.42 0 0 1-1.359-2.745v-7.169c.053-.32.586-1.386 2.105-1.386.879 0 1.839.906 1.812 1.919v6.662c0 2.692 1.066 2.718 1.066 2.718h3.571c-.853-.666-1.359-1.652-1.359-2.745v-7.169a2.01 2.01 0 0 1 2.532-1.279c.799.267 1.359.986 1.386 1.839v6.635c.027 2.718 1.066 2.692 1.066 2.692h3.571a3.41 3.41 0 0 1-1.412-2.692zm6.236 0a3.41 3.41 0 0 0 1.359 2.718h-3.571s-1.093.027-1.093-2.691v-8.128c0-2.132-1.226-2.692-1.226-2.692h2.159c.773 0 2.345 0 2.345 3.011V28.8l.027.053zm10.979-9.753s-.346-.959-1.812-.959c-2.238 0-2.771 2.665-2.771 2.665-.186-2.105-.746-2.718-2.318-2.718h-2.159s1.252.506 1.252 2.691v8.075c0 2.665 1.066 2.718 1.066 2.718h3.571a3.41 3.41 0 0 1-1.359-2.718V22.22a1.91 1.91 0 0 1 .879-1.359c1.199-.799 2.771-.56 3.704.533l-.053-2.292zm16.602.48a4.4 4.4 0 0 1 2.105.533v-2.025h-2.984v-3.091c-.64 1.013-1.466 1.919-2.399 2.692-1.012.826-3.144 1.865-3.144 1.865l2.265.027v9.38c0 2.612 1.093 2.612 1.093 2.612h3.544a3.36 3.36 0 0 1-1.386-2.638v-9.354h.906 0zm10.819 4.077c-1.999 2.079-3.571 1.759-4.823 3.304 0 0 .213 2.079 1.785 2.798.533.24 2.745 1.039 4.157-1.412v2.185s-.906 1.066-3.811 1.066c-3.49 0-5.889-2.745-5.889-6.475 0-3.677 1.945-7.062 5.65-7.088 3.597-.053 5.569 2.878 2.931 5.623zm-2.185-.853c.586-1.093 1.066-3.864-.96-3.704-2.345.187-1.892 6.396-1.892 6.396.773-.853 1.946-1.039 2.852-2.692h0zm-37.867-5.81a1.65 1.65 0 0 0 1.599-1.652 1.65 1.65 0 0 0-1.652-1.599c-.879.027-1.599.746-1.599 1.626 0 .906.746 1.626 1.652 1.626zm16.335 13.031c-.799 0-1.386-.853-1.386-1.706 0-3.358 2.745-3.837 3.491-4.717v5.676c-.347.267-.666.746-2.105.746h0zm2.105-7.728c-.826 1.439-7.275 1.759-6.289 6.742.4 1.972 1.706 2.558 3.358 2.558 1.599 0 2.585-.826 2.985-1.626.24 1.492 1.013 1.599 1.013 1.599h3.57c-.852-.64-1.385-1.626-1.385-2.692v-7.595c0-1.812-1.999-3.224-4.131-3.224-1.199-.027-2.345.32-3.331.986v2.345s.746-1.865 2.585-1.865c1.812 0 1.945.906 1.945 1.359.027.48-.053.986-.32 1.412h0zm29.501 5.596c.026.959-.826 2.212-2.638 2.212-1.866 0-2.612-1.892-2.612-1.892v2.398c1.013.64 2.185.959 3.384.959 2.425 0 4.904-1.839 4.85-4.424a4.09 4.09 0 0 0-.826-2.345c-.826-1.093-2.318-1.865-3.491-2.585-.666-.4-1.012-1.146-1.012-1.386-.027-.453.213-1.359 1.998-1.359 1.759 0 2.532 1.865 2.532 1.865v-2.265c-.986-.693-2.185-1.066-3.411-1.066-2.132 0-4.077 1.412-4.024 3.224.027 1.599.693 2.612 1.999 3.598a16.32 16.32 0 0 0 1.838 1.146c1.013.56 1.386 1.253 1.413 1.919h0z"/></g><defs><clipPath id="A"><path fill="#fff" d="M0 0h130v44.286H0z"/></clipPath></defs></svg>