<svg xmlns="http://www.w3.org/2000/svg" width="57" height="40" fill="none" xmlns:v="https://vecta.io/nano"><g clip-path="url(#A)"><path fill-rule="evenodd" d="M.213.942h8.572v22.725c0 3.596 1.665 5.739 2.982 6.657-1.394 1.224-5.654 2.296-8.83-.306C1.064 28.484.213 25.962.213 23.59V.942zm53.569 18.877v-2.388h2.614V9.052h-2.871C52.423 4.022 47.889.253 42.468.253c-6.245 0-11.308 5.002-11.308 11.171V30.99c1.779.247 3.899-.031 5.703-1.508 1.872-1.534 2.724-4.055 2.724-6.427v-.721h4.281v-8.378h-4.281v-2.531h.01c0-1.567 1.286-2.837 2.872-2.837s2.877 1.27 2.877 2.837v8.395c0 6.17 5.068 11.171 11.313 11.171v-8.334c-1.586 0-2.877-1.27-2.877-2.837zM21.318 9.052v12.296c0 .698-.586 1.264-1.31 1.264s-1.31-.566-1.31-1.264V9.052h-8.481v14.461c0 2.601.893 5.892 4.957 6.963s6.429-1.148 6.429-1.148c-.215 1.462-1.609 2.534-3.856 2.763-1.699.174-3.873-.383-4.957-.842v7.662c2.763.805 5.684 1.065 8.544.517 5.189-.995 8.465-5.279 8.465-10.98V9.052h-8.481z" fill="#99baff"/></g><defs><clipPath id="A"><path fill="#fff" d="M0 0h56.744v40H0z"/></clipPath></defs></svg>