<svg xmlns="http://www.w3.org/2000/svg" width="121" height="19" fill="none" xmlns:v="https://vecta.io/nano"><g clip-path="url(#A)" fill-rule="evenodd" fill="#99baff"><path d="M11.538 9.842l.005-.427c-4.455-.667-7.675-2.499-7.764-4.652C2.683 6.069 2.06 7.564 2.06 9.158c0 4.689 5.392 8.53 12.246 8.873-1.588-.955-2.768-4.261-2.768-8.188h0zM0 9.5C0 4.254 6.84 0 15.278 0s15.278 4.254 15.278 9.5-6.84 9.5-15.278 9.5S0 14.746 0 9.5h0zm18.806-2.482c3.17-.473 5.389-1.559 5.389-2.823 0-1.696-3.993-3.07-8.917-3.07S6.36 2.498 6.36 4.194c0 1.264 2.218 2.35 5.389 2.823.514-3.288 1.9-5.647 3.529-5.647s3.014 2.358 3.529 5.647zM16.25 18.031c6.853-.342 12.246-4.184 12.246-8.873 0-1.593-.623-3.089-1.72-4.395-.089 2.153-3.308 3.984-7.764 4.652l.006.427c0 3.927-1.181 7.233-2.768 8.188h0zm1.145-10.852c-.338-2.109-1.159-3.598-2.117-3.598S13.499 5.07 13.16 7.179a26.48 26.48 0 0 0 4.235 0h0zm-4.4 2.408c.056 3.054 1.056 5.49 2.283 5.49s2.227-2.436 2.283-5.49a26.77 26.77 0 0 1-4.566 0h0zm55.972 6.844h3.25v-5.199l5.591-8.492h-3.742l-3.474 5.755-3.474-5.755h-3.743l5.592 8.492v5.199zM48.013 9.5c0-4.01 3.406-7.261 7.608-7.261S63.227 5.49 63.227 9.5s-3.406 7.261-7.607 7.261-7.608-3.25-7.608-7.261h0zm7.608 4.598c2.345 0 4.247-2.059 4.247-4.598s-1.902-4.598-4.247-4.598-4.248 2.059-4.248 4.598 1.902 4.598 4.248 4.598h0zm-12.898 2.333h-3.205V5.264h-4.472V2.74h12.148v2.525h-4.471v11.167zm67.428-3.081l-1.232 3.081h-3.743l5.917-13.691h3.989L121 16.431h-3.743l-1.233-3.081h-5.873zm2.951-7.321h-.028l-2.003 5.011h4.033l-2.002-5.011zm-11.299 10.402h-3.205V5.264h-4.472V2.74h12.147v2.525h-4.471v11.167zM77.957 9.5c0-4.01 3.406-7.261 7.606-7.261S93.171 5.49 93.171 9.5s-3.406 7.261-7.608 7.261-7.606-3.25-7.606-7.261zm7.606 4.598c2.346 0 4.248-2.059 4.248-4.598s-1.902-4.598-4.248-4.598-4.246 2.059-4.246 4.598 1.902 4.598 4.246 4.598z"/></g><defs><clipPath id="A"><path fill="#fff" d="M0 0h121v19H0z"/></clipPath></defs></svg>